<?xml version="1.0" encoding="UTF-8" standalone="no"?>
<!DOCTYPE svg PUBLIC "-//W3C//DTD SVG 1.1//EN" "http://www.w3.org/Graphics/SVG/1.1/DTD/svg11.dtd">
<svg width="100%" height="100%" viewBox="0 0 1267 268" version="1.1" xmlns="http://www.w3.org/2000/svg" xmlns:xlink="http://www.w3.org/1999/xlink" xml:space="preserve" xmlns:serif="http://www.serif.com/" style="fill-rule:evenodd;clip-rule:evenodd;stroke-linejoin:round;stroke-miterlimit:2;">
    <g transform="matrix(1,0,0,1,-312,-1453)">
        <g transform="matrix(1.433142,0,0,1.433142,701.214487,1706.631324)">
            <g transform="matrix(0.697768,0,0,0.697768,-528.359707,-1303.870324)">
                <g transform="matrix(144,0,0,144,1402.28,1741)">
                </g>
                <text x="611px" y="1741px" style="font-family:'Geist-Bold', 'Geist';font-weight:700;font-size:144px;fill:rgb(37,37,37);">A<tspan x="712.376px " y="1741px ">I</tspan> P<tspan x="881.144px 965.96px 1084.184px 1169.864px 1225.304px 1310.984px " y="1741px 1741px 1741px 1741px 1741px 1741px ">owered</tspan></text>
            </g>
        </g>
        <g transform="matrix(1.433142,0,0,1.433142,701.214487,1706.631324)">
            <g transform="matrix(0.697768,0,0,0.697768,-532.546312,-1221.533752)">
                <g transform="matrix(144,0,0,144,1645.928,1741)">
                </g>
                <text x="611px" y="1741px" style="font-family:'Geist-Bold', 'Geist';font-weight:700;font-size:144px;fill:rgb(37,37,37);">D<tspan x="715.112px 794.312px 857.24px " y="1741px 1741px 1741px ">ata</tspan> E<tspan x="1060.856px 1147.544px 1212.344px 1268.648px 1352.744px 1435.112px 1497.176px 1584.728px " y="1741px 1741px 1741px 1741px 1741px 1741px 1741px 1741px ">xtractor</tspan></text>
            </g>
        </g>
        <g transform="matrix(1.433142,0,0,1.433142,701.214487,1706.631324)">
            <g transform="matrix(0.86453,0,0,0.86453,-482.526471,-1157.953523)">
                <path d="M323.5,1192L341.247,1247.399C341.723,1248.887 342.549,1250.241 343.654,1251.346C344.759,1252.451 346.113,1253.277 347.601,1253.753L403,1271.5L347.601,1289.247C346.113,1289.723 344.759,1290.549 343.654,1291.654C342.549,1292.759 341.723,1294.113 341.247,1295.601L323.5,1351L305.753,1295.601C305.277,1294.113 304.451,1292.759 303.346,1291.654C302.241,1290.549 300.887,1289.723 299.399,1289.247L244,1271.5L299.399,1253.753C300.887,1253.277 302.241,1252.451 303.346,1251.346C304.451,1250.241 305.277,1248.887 305.753,1247.399L323.5,1192Z" style="fill:rgb(101,98,98);"/>
            </g>
        </g>
        <g transform="matrix(1.433142,0,0,1.433142,701.214487,1706.631324)">
            <g transform="matrix(0.535394,0,0,0.535394,-329.649548,-815.165333)">
                <path d="M323.5,1192L341.247,1247.399C341.723,1248.887 342.549,1250.241 343.654,1251.346C344.759,1252.451 346.113,1253.277 347.601,1253.753L403,1271.5L347.601,1289.247C346.113,1289.723 344.759,1290.549 343.654,1291.654C342.549,1292.759 341.723,1294.113 341.247,1295.601L323.5,1351L305.753,1295.601C305.277,1294.113 304.451,1292.759 303.346,1291.654C302.241,1290.549 300.887,1289.723 299.399,1289.247L244,1271.5L299.399,1253.753C300.887,1253.277 302.241,1252.451 303.346,1251.346C304.451,1250.241 305.277,1248.887 305.753,1247.399L323.5,1192Z" style="fill:rgb(101,98,98);"/>
            </g>
        </g>
    </g>
</svg>
